<svg width="25" height="39" viewBox="0 0 25 39" fill="none" xmlns="http://www.w3.org/2000/svg">
<path d="M13.4029 39C12.954 39 12.5371 38.7747 12.3127 38.3886L3.97603 25.3886C3.68745 24.9381 3.81571 24.3589 4.2646 24.0693C4.7135 23.7797 5.32272 23.9084 5.57923 24.3589L13.3388 36.4579C17.9239 27.2871 23.0542 15.5421 23.0542 11.3589C23.0542 5.79207 17.7957 3.15346 17.2506 2.92821C16.7055 2.73514 10.2285 0.64356 5.964 3.21782C3.9119 4.44059 2.6614 6.56435 2.2125 9.55692C1.57122 13.7723 2.08424 16.9579 3.68745 18.7277C5.29066 20.4975 7.50308 20.3688 7.59927 20.3688C7.63134 20.3688 7.69547 20.3688 7.72753 20.3688C7.79166 20.3688 13.1143 20.6262 15.5832 17.7302C16.8017 16.2822 17.1544 14.2549 16.6093 11.6485C16.1925 9.62128 14.461 8.14108 12.473 8.07673C10.3568 8.01237 9.20248 8.59158 8.72152 9.91088C8.17643 11.5198 8.14436 12.7747 8.72152 13.6757C9.52312 14.9629 11.2866 15.2203 11.2866 15.2203C11.7997 15.2846 12.1844 15.7673 12.1203 16.2822C12.0562 16.797 11.5752 17.1832 11.0622 17.1188C10.966 17.1188 8.36881 16.7648 7.08625 14.7054C6.18845 13.2896 6.12432 11.4554 6.89386 9.26732C7.63134 7.11138 9.52312 6.08168 12.5051 6.14603C15.3909 6.21039 17.8277 8.30197 18.469 11.2302C19.1424 14.448 18.6614 17.0544 17.0261 18.9851C14.0442 22.4604 8.33675 22.3317 7.6634 22.2995C7.18244 22.3317 4.39286 22.3317 2.27663 20.047C0.192458 17.7945 -0.448824 14.1906 0.288651 9.26732C0.833741 5.66336 2.40488 3.0891 4.97001 1.54455C10.1965 -1.60892 17.6033 0.99752 17.9239 1.09405C17.956 1.09405 17.9881 1.12623 17.9881 1.12623C18.2766 1.25495 24.978 4.34405 24.978 11.3267C24.978 17.2153 16.9941 33.4332 14.5572 38.2599C14.3327 38.6782 13.9159 38.9678 13.467 38.9678C13.4349 39 13.4349 39 13.4029 39Z" fill="#5F85FF"/>
</svg>
